<svg height="1024" node-id="1" sillyvg="true" template-height="1024" template-width="1024" version="1.1"
     viewBox="0 0 1024 1024" width="1024" xmlns="http://www.w3.org/2000/svg" xmlns:xlink="http://www.w3.org/1999/xlink">
    <defs node-id="56">
        <linearGradient gradientUnits="objectBoundingBox" id="linearGradient-1" node-id="5" spreadMethod="pad"
                        x1="0.7053671" x2="0.3058451" y1="0.9525347" y2="0.09729988">
            <stop offset="0" stop-color="#fff1cf"></stop>
            <stop offset="1" stop-color="#ffffff" stop-opacity="0"></stop>
        </linearGradient>
        <linearGradient gradientUnits="objectBoundingBox" id="linearGradient-2" node-id="8" spreadMethod="pad"
                        x1="0.27142859" x2="0.5" y1="0.3285714" y2="1">
            <stop offset="0" stop-color="#f0c544"></stop>
            <stop offset="1" stop-color="#f0bf44" stop-opacity="0"></stop>
        </linearGradient>
        <linearGradient gradientUnits="objectBoundingBox" id="linearGradient-3" node-id="11" spreadMethod="pad"
                        x1="0.2291667" x2="0.75" y1="0.31249997" y2="0.7291666">
            <stop offset="0" stop-color="#f0bb44"></stop>
            <stop offset="1" stop-color="#f0bd44" stop-opacity="0"></stop>
        </linearGradient>
        <linearGradient gradientUnits="objectBoundingBox" id="linearGradient-4" node-id="14" spreadMethod="pad" x1="0.5"
                        x2="0.5" y1="-0.00000000000000003061617" y2="1">
            <stop offset="0" stop-color="#f0b944"></stop>
            <stop offset="1" stop-color="#f0a444" stop-opacity="0"></stop>
        </linearGradient>
        <linearGradient gradientUnits="objectBoundingBox" id="linearGradient-5" node-id="17" spreadMethod="pad" x1="0.5"
                        x2="0.5" y1="-0.00000000000000003061617" y2="1">
            <stop offset="0" stop-color="#f0c243"></stop>
            <stop offset="1" stop-color="#f0bb43" stop-opacity="0"></stop>
        </linearGradient>
        <linearGradient gradientUnits="objectBoundingBox" id="linearGradient-6" node-id="20" spreadMethod="pad" x1="0.5"
                        x2="0.5" y1="-0.00000000000000003061617" y2="1">
            <stop offset="0" stop-color="#f0c443"></stop>
            <stop offset="1" stop-color="#f0bc43" stop-opacity="0"></stop>
        </linearGradient>
        <linearGradient gradientUnits="objectBoundingBox" id="linearGradient-7" node-id="23" spreadMethod="pad" x1="0.5"
                        x2="0.5" y1="-0.00000000000000003061617" y2="1">
            <stop offset="0" stop-color="#f0b943"></stop>
            <stop offset="1" stop-color="#f0c143" stop-opacity="0"></stop>
        </linearGradient>
        <linearGradient gradientUnits="objectBoundingBox" id="linearGradient-8" node-id="26" spreadMethod="pad" x1="0.5"
                        x2="0.5" y1="-0.00000000000000003061617" y2="1">
            <stop offset="0" stop-color="#f0bb44"></stop>
            <stop offset="1" stop-color="#f0c744" stop-opacity="0"></stop>
        </linearGradient>
        <linearGradient gradientUnits="objectBoundingBox" id="linearGradient-9" node-id="29" spreadMethod="pad" x1="0.5"
                        x2="0.5" y1="-0.00000000000000003061617" y2="0.9892459">
            <stop offset="0" stop-color="#ffe9b5"></stop>
            <stop offset="1" stop-color="#f7be45"></stop>
        </linearGradient>
        <filter height="1.14" id="filter-11" node-id="33" width="1.07" x="-0.035" y="-0.035">
            <feOffset color-interpolation-filters="linearRGB" dx="0" dy="7" in="SourceAlpha"
                      result="shadowOffsetOuter1"></feOffset>
            <feColorMatrix color-interpolation-filters="linearRGB" in="shadowOffsetOuter1" result="result2"
                           type="matrix"
                           values="0 0 0 0 0.8 0 0 0 0 0.631372549 0 0 0 0 0.219607843 0 0 0 1 0"></feColorMatrix>
        </filter>
    </defs>
    <path d="M 812.00 512.50 C 812.00 677.91 677.91 812.00 512.50 812.00 C 347.09 812.00 213.00 677.91 213.00 512.50 C 213.00 347.09 347.09 213.00 512.50 213.00 C 677.91 213.00 812.00 347.09 812.00 512.50 Z"
          fill="url(#linearGradient-1)" fill-rule="nonzero" id="椭圆形" node-id="37" stroke="none" target-height="599"
          target-width="599" target-x="213" target-y="213"></path>
    <g node-id="146">
        <path d="M 239.14 401.44 L 239.77 400.64 L 240.65 400.39 L 241.53 400.64 L 242.16 401.44 L 242.83 403.26 L 244.44 407.60 L 246.36 412.79 L 247.97 417.13 L 248.64 418.95 L 249.01 419.53 L 249.59 419.91 L 251.41 420.58 L 255.76 422.19 L 260.94 424.11 L 265.29 425.71 L 267.11 426.39 L 267.91 427.02 L 268.16 427.90 L 267.91 428.78 L 267.11 429.41 L 265.29 430.08 L 260.94 431.69 L 255.76 433.61 L 251.41 435.22 L 249.59 435.89 L 249.01 436.26 L 248.64 436.84 L 247.97 438.66 L 246.36 443.01 L 244.44 448.19 L 242.83 452.54 L 242.16 454.36 L 241.53 455.16 L 240.65 455.41 L 239.77 455.16 L 239.14 454.36 L 238.46 452.54 L 236.86 448.19 L 234.94 443.01 L 233.33 438.66 L 232.66 436.84 L 232.28 436.26 L 231.70 435.89 L 229.88 435.22 L 225.54 433.61 L 220.35 431.69 L 216.01 430.08 L 214.19 429.41 L 213.39 428.78 L 213.13 427.90 L 213.39 427.02 L 214.19 426.39 L 216.01 425.71 L 220.35 424.11 L 225.54 422.19 L 229.88 420.58 L 231.70 419.91 L 232.28 419.53 L 232.66 418.95 L 233.33 417.13 L 234.94 412.79 L 236.86 407.60 L 238.46 403.26 L 239.14 401.44 Z"
              fill="url(#linearGradient-2)" fill-rule="nonzero" group-id="1" id="路径" node-id="39" stroke="none"
              target-height="55.01999" target-width="55.03" target-x="213.13" target-y="400.39"></path>
        <path d="M 633.79 161.39 L 634.42 160.59 L 635.30 160.34 L 636.18 160.59 L 636.81 161.39 L 637.36 162.88 L 638.68 166.44 L 640.25 170.68 L 641.56 174.23 L 642.11 175.72 L 642.49 176.30 L 643.07 176.67 L 644.56 177.23 L 648.11 178.54 L 652.35 180.11 L 655.91 181.43 L 657.40 181.98 L 658.19 182.61 L 658.45 183.49 L 658.19 184.37 L 657.40 185.00 L 655.91 185.55 L 652.35 186.87 L 648.11 188.44 L 644.56 189.75 L 643.07 190.30 L 642.49 190.67 L 642.11 191.25 L 641.56 192.75 L 640.25 196.30 L 638.68 200.54 L 637.36 204.10 L 636.81 205.59 L 636.18 206.38 L 635.30 206.64 L 634.42 206.38 L 633.79 205.59 L 633.24 204.10 L 631.92 200.54 L 630.35 196.30 L 629.04 192.75 L 628.49 191.25 L 628.11 190.67 L 627.53 190.30 L 626.04 189.75 L 622.49 188.44 L 618.25 186.87 L 614.69 185.55 L 613.20 185.00 L 612.40 184.37 L 612.15 183.49 L 612.40 182.61 L 613.20 181.98 L 614.69 181.43 L 618.25 180.11 L 622.49 178.54 L 626.04 177.23 L 627.53 176.67 L 628.11 176.30 L 628.49 175.72 L 629.04 174.23 L 630.35 170.68 L 631.92 166.44 L 633.24 162.88 L 633.79 161.39 Z"
              fill="url(#linearGradient-3)" fill-rule="nonzero" group-id="1" id="路径" node-id="40" stroke="none"
              target-height="46.300003" target-width="46.299988" target-x="612.15" target-y="160.34"></path>
        <path d="M 786.50 514.05 L 787.13 513.25 L 788.00 513.00 L 788.87 513.25 L 789.50 514.05 L 790.17 515.86 L 791.85 520.39 L 794.03 526.27 L 796.21 532.16 L 797.88 536.69 L 798.55 538.50 L 798.92 539.08 L 799.50 539.45 L 801.31 540.12 L 805.84 541.80 L 811.73 543.97 L 817.61 546.15 L 822.14 547.83 L 823.95 548.50 L 824.75 549.13 L 825.00 550.00 L 824.75 550.87 L 823.95 551.50 L 822.14 552.17 L 817.61 553.85 L 811.73 556.03 L 805.84 558.21 L 801.31 559.88 L 799.50 560.55 L 798.92 560.92 L 798.55 561.50 L 797.88 563.31 L 796.20 567.84 L 794.03 573.73 L 791.85 579.61 L 790.17 584.14 L 789.50 585.95 L 788.87 586.75 L 788.00 587.00 L 787.13 586.75 L 786.50 585.95 L 785.83 584.14 L 784.15 579.61 L 781.97 573.73 L 779.80 567.84 L 778.12 563.31 L 777.45 561.50 L 777.08 560.92 L 776.50 560.55 L 774.69 559.88 L 770.16 558.20 L 764.27 556.03 L 758.39 553.85 L 753.86 552.17 L 752.05 551.50 L 751.25 550.87 L 751.00 550.00 L 751.25 549.13 L 752.05 548.50 L 753.86 547.83 L 758.39 546.15 L 764.27 543.97 L 770.16 541.80 L 774.69 540.12 L 776.50 539.45 L 777.08 539.08 L 777.45 538.50 L 778.12 536.69 L 779.79 532.16 L 781.97 526.27 L 784.15 520.39 L 785.83 515.86 L 786.50 514.05 Z"
              fill="url(#linearGradient-4)" fill-rule="nonzero" group-id="1" id="路径" node-id="41" stroke="none"
              target-height="74" target-width="74" target-x="751" target-y="513"></path>
        <path d="M 292.00 655.50 L 291.70 658.69 L 290.90 661.62 L 289.61 664.33 L 287.87 666.79 L 285.79 668.87 L 283.33 670.61 L 280.62 671.90 L 277.69 672.70 L 274.50 673.00 L 271.31 672.70 L 268.38 671.90 L 265.67 670.61 L 263.21 668.87 L 261.13 666.79 L 259.39 664.33 L 258.10 661.62 L 257.30 658.69 L 257.00 655.50 L 257.30 652.31 L 258.10 649.38 L 259.39 646.67 L 261.13 644.21 L 263.21 642.13 L 265.67 640.39 L 268.38 639.10 L 271.31 638.30 L 274.50 638.00 L 277.69 638.30 L 280.62 639.10 L 283.33 640.39 L 285.79 642.13 L 287.87 644.21 L 289.61 646.67 L 290.90 649.38 L 291.70 652.31 L 292.00 655.50 Z"
              fill="#ffffff" fill-rule="nonzero" group-id="1" id="椭圆形" node-id="42" stroke="none" target-height="35"
              target-width="35" target-x="257" target-y="638"></path>
        <path d="M 287.96 655.50 L 287.73 657.96 L 287.12 660.21 L 286.12 662.29 L 284.79 664.18 L 283.18 665.79 L 281.29 667.12 L 279.21 668.12 L 276.96 668.73 L 274.50 668.96 L 272.04 668.73 L 269.79 668.12 L 267.71 667.12 L 265.82 665.79 L 264.21 664.18 L 262.88 662.29 L 261.88 660.21 L 261.27 657.96 L 261.04 655.50 L 261.27 653.04 L 261.88 650.79 L 262.88 648.71 L 264.21 646.82 L 265.82 645.21 L 267.71 643.88 L 269.79 642.88 L 272.04 642.27 L 274.50 642.04 L 276.96 642.27 L 279.21 642.88 L 281.29 643.88 L 283.18 645.21 L 284.79 646.82 L 286.12 648.71 L 287.12 650.79 L 287.73 653.04 L 287.96 655.50 Z"
              fill="none" group-id="1" id="椭圆形" node-id="43" stroke="url(#linearGradient-5)" stroke-linecap="butt"
              stroke-width="5" target-height="26.920044" target-width="26.919983" target-x="261.04"
              target-y="642.04"></path>
        <path d="M 430.00 282.00 L 429.76 284.56 L 429.12 286.90 L 428.09 289.07 L 426.70 291.03 L 425.03 292.70 L 423.07 294.09 L 420.90 295.12 L 418.56 295.76 L 416.00 296.00 L 413.44 295.76 L 411.10 295.12 L 408.93 294.09 L 406.97 292.70 L 405.30 291.03 L 403.91 289.07 L 402.88 286.90 L 402.24 284.56 L 402.00 282.00 L 402.24 279.44 L 402.88 277.10 L 403.91 274.93 L 405.30 272.97 L 406.97 271.30 L 408.93 269.91 L 411.10 268.88 L 413.44 268.24 L 416.00 268.00 L 418.56 268.24 L 420.90 268.88 L 423.07 269.91 L 425.03 271.30 L 426.70 272.97 L 428.09 274.93 L 429.12 277.10 L 429.76 279.44 L 430.00 282.00 Z"
              fill="#ffffff" fill-rule="nonzero" group-id="1" id="椭圆形" node-id="44" stroke="none" target-height="28"
              target-width="28" target-x="402" target-y="268"></path>
        <path d="M 425.96 282.00 L 425.79 283.82 L 425.34 285.48 L 424.60 287.03 L 423.61 288.43 L 422.43 289.61 L 421.03 290.60 L 419.48 291.34 L 417.82 291.79 L 416.00 291.96 L 414.18 291.79 L 412.52 291.34 L 410.97 290.60 L 409.57 289.61 L 408.39 288.43 L 407.40 287.03 L 406.66 285.48 L 406.21 283.82 L 406.04 282.00 L 406.21 280.18 L 406.66 278.52 L 407.40 276.97 L 408.39 275.57 L 409.57 274.39 L 410.97 273.40 L 412.52 272.66 L 414.18 272.21 L 416.00 272.04 L 417.82 272.21 L 419.48 272.66 L 421.03 273.40 L 422.43 274.39 L 423.61 275.57 L 424.60 276.97 L 425.34 278.52 L 425.79 280.18 L 425.96 282.00 Z"
              fill="none" group-id="1" id="椭圆形" node-id="45" stroke="url(#linearGradient-6)" stroke-linecap="butt"
              stroke-width="5" target-height="19.919983" target-width="19.919983" target-x="406.04"
              target-y="272.04"></path>
        <path d="M 753.00 722.50 L 752.77 725.62 L 752.18 728.53 L 751.24 731.27 L 749.93 733.86 L 748.29 736.27 L 746.41 738.41 L 744.27 740.29 L 741.86 741.93 L 739.27 743.24 L 736.53 744.18 L 733.62 744.77 L 730.50 745.00 L 727.38 744.77 L 724.47 744.18 L 721.73 743.24 L 719.14 741.93 L 716.73 740.29 L 714.59 738.41 L 712.71 736.27 L 711.07 733.86 L 709.76 731.27 L 708.82 728.53 L 708.23 725.62 L 708.00 722.50 L 708.23 719.38 L 708.82 716.47 L 709.76 713.73 L 711.07 711.14 L 712.71 708.73 L 714.59 706.59 L 716.73 704.71 L 719.14 703.07 L 721.73 701.76 L 724.47 700.82 L 727.38 700.23 L 730.50 700.00 L 733.62 700.23 L 736.53 700.82 L 739.27 701.76 L 741.86 703.07 L 744.27 704.71 L 746.41 706.59 L 748.29 708.73 L 749.93 711.14 L 751.24 713.73 L 752.18 716.47 L 752.77 719.38 L 753.00 722.50 Z"
              fill="#ffffff" fill-rule="nonzero" group-id="1" id="椭圆形" node-id="46" stroke="none" target-height="45"
              target-width="45" target-x="708" target-y="700"></path>
        <path d="M 748.98 722.50 L 748.67 725.87 L 747.83 728.96 L 746.46 731.83 L 744.62 734.42 L 742.42 736.62 L 739.83 738.46 L 736.96 739.83 L 733.87 740.67 L 730.50 740.98 L 727.13 740.67 L 724.04 739.83 L 721.17 738.46 L 718.58 736.62 L 716.38 734.42 L 714.54 731.83 L 713.17 728.96 L 712.33 725.87 L 712.02 722.50 L 712.33 719.13 L 713.17 716.03 L 714.54 713.17 L 716.38 710.58 L 718.58 708.38 L 721.17 706.54 L 724.04 705.17 L 727.13 704.33 L 730.50 704.02 L 733.87 704.33 L 736.96 705.17 L 739.83 706.54 L 742.42 708.38 L 744.62 710.58 L 746.46 713.17 L 747.83 716.03 L 748.67 719.13 L 748.98 722.50 Z"
              fill="none" group-id="1" id="椭圆形" node-id="47" stroke="url(#linearGradient-7)" stroke-linecap="butt"
              stroke-width="5" target-height="36.95996" target-width="36.95996" target-x="712.02"
              target-y="704.02"></path>
        <path d="M 707.48 311.45 L 708.59 310.44 L 709.86 309.84 L 711.25 309.64 L 712.63 309.84 L 713.91 310.44 L 715.02 311.45 L 715.94 312.60 L 718.13 315.32 L 720.74 318.58 L 722.92 321.31 L 723.84 322.45 L 724.52 323.60 L 724.86 324.73 L 724.89 325.90 L 724.43 327.57 L 723.42 328.98 L 722.49 329.68 L 721.39 330.13 L 720.07 330.31 L 718.24 330.31 L 713.86 330.31 L 708.64 330.31 L 704.26 330.31 L 702.43 330.31 L 701.11 330.13 L 700.01 329.68 L 699.08 328.98 L 698.07 327.57 L 697.60 325.90 L 697.63 324.73 L 697.97 323.60 L 698.65 322.45 L 699.57 321.31 L 701.76 318.58 L 704.37 315.32 L 706.56 312.60 L 707.48 311.45 Z"
              fill="url(#linearGradient-8)" fill-rule="nonzero" group-id="1" id="路径" node-id="48" stroke="none"
              target-height="20.669983" target-width="27.29004" target-x="697.6" target-y="309.64"></path>
    </g>
    <path d="M 618.00 688.50 C 618.00 695.96 570.99 702.00 513.00 702.00 C 455.01 702.00 408.00 695.96 408.00 688.50 C 408.00 681.04 455.01 675.00 513.00 675.00 C 570.99 675.00 618.00 681.04 618.00 688.50 Z"
          fill="#fee3a7" fill-rule="evenodd" id="椭圆形" node-id="49" stroke="none" target-height="27"
          target-width="210" target-x="408" target-y="675"></path>
    <path d="M 352.00 470.43 L 352.25 462.14 L 352.96 454.04 L 354.11 446.11 L 355.70 438.34 L 357.73 430.71 L 360.20 423.16 L 363.05 415.84 L 366.28 408.71 L 369.90 401.77 L 373.91 395.01 L 379.42 386.88 L 385.42 379.14 L 391.95 371.77 L 399.01 364.77 L 406.48 358.23 L 414.38 352.17 L 422.71 346.56 L 431.49 341.40 L 438.71 337.69 L 446.15 334.32 L 453.80 331.31 L 461.69 328.65 L 469.83 326.34 L 478.01 324.45 L 486.35 322.97 L 494.87 321.90 L 503.58 321.24 L 512.50 321.00 L 521.42 321.24 L 530.13 321.90 L 538.65 322.97 L 546.99 324.45 L 555.17 326.34 L 563.31 328.65 L 571.20 331.31 L 578.85 334.32 L 586.29 337.69 L 593.51 341.40 L 602.29 346.56 L 610.62 352.17 L 618.52 358.23 L 625.99 364.77 L 633.05 371.77 L 639.58 379.14 L 645.58 386.88 L 651.09 395.01 L 655.10 401.77 L 658.72 408.71 L 661.95 415.84 L 664.80 423.16 L 667.27 430.71 L 669.30 438.34 L 670.89 446.11 L 672.04 454.04 L 672.75 462.14 L 673.00 470.43 L 672.73 480.66 L 671.96 491.02 L 670.66 501.51 L 668.84 512.16 L 666.54 522.67 L 663.77 533.16 L 660.51 543.62 L 656.76 554.09 L 652.58 564.36 L 647.96 574.45 L 642.90 584.37 L 637.40 594.12 L 631.47 603.62 L 625.17 612.79 L 618.47 621.64 L 611.37 630.18 L 603.87 638.37 L 596.03 646.09 L 587.85 653.36 L 579.32 660.17 L 572.22 665.29 L 564.93 670.03 L 557.44 674.39 L 549.75 678.39 L 541.85 682.03 L 535.52 684.39 L 529.08 686.16 L 522.49 687.34 L 515.83 687.93 L 509.17 687.93 L 502.51 687.34 L 495.92 686.16 L 489.48 684.39 L 483.15 682.03 L 475.25 678.39 L 467.56 674.39 L 460.07 670.03 L 452.78 665.29 L 445.68 660.17 L 437.15 653.36 L 428.97 646.09 L 421.13 638.37 L 413.63 630.18 L 406.53 621.64 L 399.83 612.79 L 393.53 603.62 L 387.60 594.12 L 382.10 584.37 L 377.04 574.45 L 372.42 564.36 L 368.24 554.09 L 364.49 543.62 L 361.23 533.16 L 358.46 522.67 L 356.16 512.16 L 354.34 501.51 L 353.04 491.02 L 352.27 480.66 L 352.00 470.43 Z M 512.50 527.44 L 517.26 527.18 L 521.81 526.49 L 526.16 525.38 L 530.35 523.83 L 534.39 521.88 L 538.15 519.59 L 541.66 516.97 L 544.93 514.00 L 547.90 510.73 L 550.52 507.22 L 552.80 503.46 L 554.75 499.42 L 556.30 495.23 L 557.41 490.87 L 558.10 486.33 L 558.36 481.56 L 558.10 476.80 L 557.41 472.25 L 556.30 467.90 L 554.75 463.71 L 552.80 459.67 L 550.52 455.90 L 547.90 452.39 L 544.93 449.12 L 541.66 446.15 L 538.15 443.53 L 534.39 441.25 L 530.35 439.29 L 526.16 437.75 L 521.81 436.63 L 517.26 435.94 L 512.50 435.69 L 507.74 435.94 L 503.19 436.63 L 498.84 437.75 L 494.65 439.29 L 490.61 441.25 L 486.85 443.53 L 483.34 446.15 L 480.07 449.12 L 477.10 452.39 L 474.48 455.90 L 472.20 459.67 L 470.25 463.71 L 468.70 467.90 L 467.59 472.25 L 466.90 476.80 L 466.64 481.56 L 466.90 486.33 L 467.59 490.87 L 468.70 495.23 L 470.25 499.42 L 472.20 503.46 L 474.48 507.22 L 477.10 510.73 L 480.07 514.00 L 483.34 516.97 L 486.85 519.59 L 490.61 521.88 L 494.65 523.83 L 498.84 525.38 L 503.19 526.49 L 507.74 527.18 L 512.50 527.44 Z"
          fill="url(#linearGradient-9)" fill-rule="nonzero" group-id="2" id="形状" node-id="51" stroke="none"
          target-height="366.93" target-width="321" target-x="352" target-y="321"></path>
    <path d="M 564.00 480.00 L 563.72 485.19 L 562.97 490.15 L 561.75 494.90 L 560.07 499.46 L 557.94 503.87 L 555.45 507.97 L 552.59 511.79 L 549.36 515.36 L 545.79 518.59 L 541.97 521.45 L 537.87 523.94 L 533.46 526.07 L 528.90 527.75 L 524.15 528.97 L 519.19 529.72 L 514.00 530.00 L 508.81 529.72 L 503.85 528.97 L 499.10 527.75 L 494.54 526.07 L 490.13 523.94 L 486.03 521.45 L 482.21 518.59 L 478.64 515.36 L 475.41 511.79 L 472.55 507.97 L 470.06 503.87 L 467.93 499.46 L 466.25 494.90 L 465.03 490.15 L 464.28 485.19 L 464.00 480.00 L 464.28 474.81 L 465.03 469.85 L 466.25 465.10 L 467.93 460.54 L 470.06 456.13 L 472.55 452.03 L 475.41 448.21 L 478.64 444.64 L 482.21 441.41 L 486.03 438.55 L 490.13 436.06 L 494.54 433.93 L 499.10 432.25 L 503.85 431.03 L 508.81 430.28 L 514.00 430.00 L 519.19 430.28 L 524.15 431.03 L 528.90 432.25 L 533.46 433.93 L 537.87 436.06 L 541.97 438.55 L 545.79 441.41 L 549.36 444.64 L 552.59 448.21 L 555.45 452.03 L 557.94 456.13 L 560.07 460.54 L 561.75 465.10 L 562.97 469.85 L 563.72 474.81 L 564.00 480.00 Z"
          fill="#000000" fill-rule="nonzero" filter="url(#filter-11)" group-id="2,3,4" node-id="139" stroke="none"
          target-height="100" target-width="100" target-x="464" target-y="430"></path>
    <path d="M 564.00 480.00 L 563.72 485.19 L 562.97 490.15 L 561.75 494.90 L 560.07 499.46 L 557.94 503.87 L 555.45 507.97 L 552.59 511.79 L 549.36 515.36 L 545.79 518.59 L 541.97 521.45 L 537.87 523.94 L 533.46 526.07 L 528.90 527.75 L 524.15 528.97 L 519.19 529.72 L 514.00 530.00 L 508.81 529.72 L 503.85 528.97 L 499.10 527.75 L 494.54 526.07 L 490.13 523.94 L 486.03 521.45 L 482.21 518.59 L 478.64 515.36 L 475.41 511.79 L 472.55 507.97 L 470.06 503.87 L 467.93 499.46 L 466.25 494.90 L 465.03 490.15 L 464.28 485.19 L 464.00 480.00 L 464.28 474.81 L 465.03 469.85 L 466.25 465.10 L 467.93 460.54 L 470.06 456.13 L 472.55 452.03 L 475.41 448.21 L 478.64 444.64 L 482.21 441.41 L 486.03 438.55 L 490.13 436.06 L 494.54 433.93 L 499.10 432.25 L 503.85 431.03 L 508.81 430.28 L 514.00 430.00 L 519.19 430.28 L 524.15 431.03 L 528.90 432.25 L 533.46 433.93 L 537.87 436.06 L 541.97 438.55 L 545.79 441.41 L 549.36 444.64 L 552.59 448.21 L 555.45 452.03 L 557.94 456.13 L 560.07 460.54 L 561.75 465.10 L 562.97 469.85 L 563.72 474.81 L 564.00 480.00 Z"
          fill="#ffffff" fill-rule="nonzero" group-id="2,3,5" node-id="144" stroke="none" target-height="100"
          target-width="100" target-x="464" target-y="430"></path>
</svg>